<svg width="90" height="104" viewBox="0 0 90 104" fill="none" xmlns="http://www.w3.org/2000/svg">
<path d="M46.4025 50H32.6825L14.4125 22.42V50H0.692461V0.649997H14.4125L32.6825 28.58V0.649997H46.4025V50ZM69.1979 38.87H89.7079V50H53.7979V39.57L74.0979 11.71H53.7979V0.649997H89.7079V11.08L69.1979 38.87ZM3.18402 93.01C7.71069 89.4633 11.4207 86.4067 14.314 83.84C17.2074 81.2733 19.634 78.6367 21.594 75.93C23.554 73.1767 24.534 70.5633 24.534 68.09C24.534 66.5967 24.184 65.43 23.484 64.59C22.8307 63.75 21.8507 63.33 20.544 63.33C19.1907 63.33 18.1407 63.9133 17.394 65.08C16.6474 66.2 16.2974 67.8567 16.344 70.05H3.04402C3.18402 65.8967 4.09402 62.4667 5.77402 59.76C7.45402 57.0067 9.64736 55 12.354 53.74C15.0607 52.4333 18.0707 51.78 21.384 51.78C27.124 51.78 31.394 53.2033 34.194 56.05C36.994 58.8967 38.394 62.5833 38.394 67.11C38.394 71.9633 36.7607 76.5133 33.494 80.76C30.274 85.0067 26.2374 88.81 21.384 92.17H38.884V103.3H3.18402V93.01ZM44.2975 95.6V84.26L65.7875 53.6H80.8375V83.7H86.2275V95.6H80.8375V104H66.9775V95.6H44.2975ZM68.0275 69.07L58.3675 83.7H68.0275V69.07Z" fill="#00BCD4"/>
</svg>
