<svg width="268" height="268" viewBox="0 0 268 268" fill="none" xmlns="http://www.w3.org/2000/svg">
<path fill-rule="evenodd" clip-rule="evenodd" d="M60 0C26.8629 0 0 26.8629 0 60V208C0 241.137 26.8629 268 60 268H208C241.137 268 268 241.137 268 208V60C268 26.8629 241.137 0 208 0H60ZM106.075 122H131.555V30.35H106.075V82.22L72.1446 30.35H46.6646V122H72.1446V70.78L106.075 122ZM221.079 101.33H182.989L221.079 49.72V30.35H154.389V50.89H192.089L154.389 102.63V122H221.079V101.33ZM71.9618 199.56C66.5884 204.327 59.6984 210.003 51.2918 216.59V235.7H117.592V215.03H85.0918C94.1051 208.79 101.602 201.727 107.582 193.84C113.648 185.953 116.682 177.503 116.682 168.49C116.682 160.083 114.082 153.237 108.882 147.95C103.682 142.663 95.7518 140.02 85.0918 140.02C78.9384 140.02 73.3484 141.233 68.3218 143.66C63.2951 146 59.2218 149.727 56.1018 154.84C52.9818 159.867 51.2918 166.237 51.0318 173.95H75.7318C75.6451 169.877 76.2951 166.8 77.6818 164.72C79.0684 162.553 81.0184 161.47 83.5318 161.47C85.9584 161.47 87.7784 162.25 88.9918 163.81C90.2918 165.37 90.9418 167.537 90.9418 170.31C90.9418 174.903 89.1218 179.757 85.4818 184.87C81.8418 189.897 77.3351 194.793 71.9618 199.56ZM136.745 200.34V221.4H178.865V237H204.605V221.4H214.615V199.3H204.605V143.4H176.655L136.745 200.34ZM162.875 199.3L180.815 172.13V199.3H162.875Z" fill="#00BCD4"/>
</svg>
